{
  "accessors": [
    {
      "bufferView": 2,
      "componentType": 5126,
      "count": 82,
      "max": [
        3.1156899929046631,
        1,
        1.9688899517059326
      ],
      "min": [
        -1,
        -1.2248200178146362,
        0.082639999687671661
      ],
      "type": "VEC3"
    },
    {
      "bufferView": 2,
      "byteOffset": 984,
      "componentType": 5126,
      "count": 82,
      "max": [
        0.71400701999664307,
        0.98442304134368896,
        0.90454137325286865
      ],
      "min": [
        -0.72788256406784058,
        -0.88895958662033081,
        -0.92989552021026611
      ],
      "type": "VEC3"
    },
    {
      "bufferView": 3,
      "componentType": 5126,
      "count": 82,
      "max": [
        0.70726156234741211,
        0.99999809265136719,
        0.99543893337249756,
        1
      ],
      "min": [
        -0.92988580465316772,
        -0.96109724044799805,
        -0.45594349503517151,
        -1
      ],
      "type": "VEC4"
    },
    {
      "bufferView": 1,
      "componentType": 5126,
      "count": 82,
      "max": [
        0.33377999067306519,
        0.21109999716281891
      ],
      "min": [
        0.29877001047134399,
        0.11602000147104263
      ],
      "type": "VEC2"
    },
    {
      "bufferView": 0,
      "componentType": 5125,
      "count": 480,
      "max": [
        81
      ],
      "min": [
        0
      ],
      "type": "SCALAR"
    },
    {
      "bufferView": 2,
      "byteOffset": 1968,
      "componentType": 5126,
      "count": 98,
      "max": [
        0.95754998922348022,
        1.0475200414657593,
        1.6095099449157715
      ],
      "min": [
        -1.3915899991989136,
        -1.0582200288772583,
        -2.0748300552368164
      ],
      "type": "VEC3"
    },
    {
      "bufferView": 2,
      "byteOffset": 3144,
      "componentType": 5126,
      "count": 98,
      "max": [
        0.93513369560241699,
        0.72788256406784058,
        0.7588844895362854
      ],
      "min": [
        -0.57735031843185425,
        -0.72788256406784058,
        -0.7588844895362854
      ],
      "type": "VEC3"
    },
    {
      "bufferView": 3,
      "byteOffset": 1312,
      "componentType": 5126,
      "count": 98,
      "max": [
        0.6854548454284668,
        0.99278748035430908,
        0.97357970476150513,
        1
      ],
      "min": [
        -0.6854548454284668,
        -0.99274885654449463,
        -0.12966379523277283,
        -1
      ],
      "type": "VEC4"
    },
    {
      "bufferView": 1,
      "byteOffset": 656,
      "componentType": 5126,
      "count": 98,
      "max": [
        0.3424299955368042,
        0.39429000020027161
      ],
      "min": [
        0.15791000425815582,
        0.24961000680923462
      ],
      "type": "VEC2"
    },
    {
      "bufferView": 0,
      "byteOffset": 1920,
      "componentType": 5125,
      "count": 558,
      "max": [
        97
      ],
      "min": [
        0
      ],
      "type": "SCALAR"
    },
    {
      "bufferView": 2,
      "byteOffset": 4320,
      "componentType": 5126,
      "count": 323,
      "max": [
        1.1103899478912354,
        0.42372000217437744,
        0.40845000743865967
      ],
      "min": [
        -0.074369996786117554,
        -0.66960000991821289,
        -1.7298200130462646
      ],
      "type": "VEC3"
    },
    {
      "bufferView": 2,
      "byteOffset": 8196,
      "componentType": 5126,
      "count": 323,
      "max": [
        0.96867406368255615,
        0.99753928184509277,
        0.96642309427261353
      ],
      "min": [
        -0.97279238700866699,
        -0.99924033880233765,
        -0.92542916536331177
      ],
      "type": "VEC3"
    },
    {
      "bufferView": 3,
      "byteOffset": 2880,
      "componentType": 5126,
      "count": 323,
      "max": [
        0.99995899200439453,
        0.99950027465820312,
        0.48726674914360046,
        1
      ],
      "min": [
        -0.7419465184211731,
        -0.99863505363464355,
        -0.67895674705505371,
        -1
      ],
      "type": "VEC4"
    },
    {
      "bufferView": 1,
      "byteOffset": 1440,
      "componentType": 5126,
      "count": 323,
      "max": [
        0.45671001076698303,
        0.65719002485275269
      ],
      "min": [
        0.3682200014591217,
        0.45842000842094421
      ],
      "type": "VEC2"
    },
    {
      "bufferView": 0,
      "byteOffset": 4152,
      "componentType": 5125,
      "count": 1914,
      "max": [
        322
      ],
      "min": [
        0
      ],
      "type": "SCALAR"
    },
    {
      "bufferView": 2,
      "byteOffset": 12072,
      "componentType": 5126,
      "count": 96,
      "max": [
        0.95717000961303711,
        3.0496799945831299,
        0.21265999972820282
      ],
      "min": [
        -0.95717000961303711,
        -1,
        -2.2727599143981934
      ],
      "type": "VEC3"
    },
    {
      "bufferView": 2,
      "byteOffset": 13224,
      "componentType": 5126,
      "count": 96,
      "max": [
        0.99209046363830566,
        0.98344165086746216,
        0.99057990312576294
      ],
      "min": [
        -0.99209046363830566,
        -0.6799924373626709,
        -0.99057990312576294
      ],
      "type": "VEC3"
    },
    {
      "bufferView": 3,
      "byteOffset": 8048,
      "componentType": 5126,
      "count": 96,
      "max": [
        0.99421024322509766,
        0.54632222652435303,
        0.99214619398117065,
        1
      ],
      "min": [
        -0.77868211269378662,
        -0.53700000047683716,
        -0.99275034666061401,
        -1
      ],
      "type": "VEC4"
    },
    {
      "bufferView": 1,
      "byteOffset": 4024,
      "componentType": 5126,
      "count": 96,
      "max": [
        0.39116001129150391,
        0.6980699896812439
      ],
      "min": [
        0.11078999936580658,
        0.40838998556137085
      ],
      "type": "VEC2"
    },
    {
      "bufferView": 0,
      "byteOffset": 11808,
      "componentType": 5125,
      "count": 564,
      "max": [
        95
      ],
      "min": [
        0
      ],
      "type": "SCALAR"
    },
    {
      "bufferView": 2,
      "byteOffset": 14376,
      "componentType": 5126,
      "count": 166,
      "max": [
        0.53310000896453857,
        0.26794001460075378,
        0.089620001614093781
      ],
      "min": [
        -0.39847999811172485,
        -0.59415000677108765,
        -1.0602099895477295
      ],
      "type": "VEC3"
    },
    {
      "bufferView": 2,
      "byteOffset": 16368,
      "componentType": 5126,
      "count": 166,
      "max": [
        0.98490947484970093,
        0.94316685199737549,
        0.82546281814575195
      ],
      "min": [
        -0.98668164014816284,
        -0.91603052616119385,
        -0.84923321008682251
      ],
      "type": "VEC3"
    },
    {
      "bufferView": 3,
      "byteOffset": 9584,
      "componentType": 5126,
      "count": 166,
      "max": [
        0.99820882081985474,
        0.99867075681686401,
        0.73949211835861206,
        1
      ],
      "min": [
        -0.7248644232749939,
        -0.99917900562286377,
        -0.73207658529281616,
        -1
      ],
      "type": "VEC4"
    },
    {
      "bufferView": 1,
      "byteOffset": 4792,
      "componentType": 5126,
      "count": 166,
      "max": [
        0.45098000764846802,
        0.44086000323295593
      ],
      "min": [
        0.42333000898361206,
        0.39838999509811401
      ],
      "type": "VEC2"
    },
    {
      "bufferView": 0,
      "byteOffset": 14064,
      "componentType": 5125,
      "count": 792,
      "max": [
        165
      ],
      "min": [
        0
      ],
      "type": "SCALAR"
    },
    {
      "bufferView": 2,
      "byteOffset": 18360,
      "componentType": 5126,
      "count": 783,
      "max": [
        1.4942300319671631,
        1.4942300319671631,
        3.2947299480438232
      ],
      "min": [
        -1.4942300319671631,
        -1.4942300319671631,
        0
      ],
      "type": "VEC3"
    },
    {
      "bufferView": 2,
      "byteOffset": 27756,
      "componentType": 5126,
      "count": 783,
      "max": [
        1,
        1,
        0.99655753374099731
      ],
      "min": [
        -1,
        -1,
        -0.94860184192657471
      ],
      "type": "VEC3"
    },
    {
      "bufferView": 3,
      "byteOffset": 12240,
      "componentType": 5126,
      "count": 783,
      "max": [
        1,
        0.99926239252090454,
        0.9968680739402771,
        1
      ],
      "min": [
        0,
        -1,
        -0.99686813354492188,
        -1
      ],
      "type": "VEC4"
    },
    {
      "bufferView": 1,
      "byteOffset": 6120,
      "componentType": 5126,
      "count": 783,
      "max": [
        0.34283998608589172,
        0.96762001514434814
      ],
      "min": [
        0.15700000524520874,
        0.73568999767303467
      ],
      "type": "VEC2"
    },
    {
      "bufferView": 0,
      "byteOffset": 17232,
      "componentType": 5125,
      "count": 3546,
      "max": [
        782
      ],
      "min": [
        0
      ],
      "type": "SCALAR"
    },
    {
      "bufferView": 2,
      "byteOffset": 37152,
      "componentType": 5126,
      "count": 166,
      "max": [
        0.53310000896453857,
        0.26794001460075378,
        0.089620001614093781
      ],
      "min": [
        -0.39847999811172485,
        -0.59415000677108765,
        -1.0602099895477295
      ],
      "type": "VEC3"
    },
    {
      "bufferView": 2,
      "byteOffset": 39144,
      "componentType": 5126,
      "count": 166,
      "max": [
        0.98490947484970093,
        0.94316685199737549,
        0.82546281814575195
      ],
      "min": [
        -0.98668164014816284,
        -0.91603052616119385,
        -0.84923321008682251
      ],
      "type": "VEC3"
    },
    {
      "bufferView": 3,
      "byteOffset": 24768,
      "componentType": 5126,
      "count": 166,
      "max": [
        0.72483879327774048,
        0.99914216995239258,
        0.73219412565231323,
        1
      ],
      "min": [
        -0.99820065498352051,
        -0.99897724390029907,
        -0.73909753561019897,
        -1
      ],
      "type": "VEC4"
    },
    {
      "bufferView": 1,
      "byteOffset": 12384,
      "componentType": 5126,
      "count": 166,
      "max": [
        0.075939998030662537,
        0.44029998779296875
      ],
      "min": [
        0.049529999494552612,
        0.39974001049995422
      ],
      "type": "VEC2"
    },
    {
      "bufferView": 0,
      "byteOffset": 31416,
      "componentType": 5125,
      "count": 792,
      "max": [
        165
      ],
      "min": [
        0
      ],
      "type": "SCALAR"
    },
    {
      "bufferView": 2,
      "byteOffset": 41136,
      "componentType": 5126,
      "count": 323,
      "max": [
        1.1103899478912354,
        0.42372000217437744,
        0.40845000743865967
      ],
      "min": [
        -0.074369996786117554,
        -0.66960000991821289,
        -1.7298200130462646
      ],
      "type": "VEC3"
    },
    {
      "bufferView": 2,
      "byteOffset": 45012,
      "componentType": 5126,
      "count": 323,
      "max": [
        0.96867406368255615,
        0.99753928184509277,
        0.96642309427261353
      ],
      "min": [
        -0.97279238700866699,
        -0.99924033880233765,
        -0.92542916536331177
      ],
      "type": "VEC3"
    },
    {
      "bufferView": 3,
      "byteOffset": 27424,
      "componentType": 5126,
      "count": 323,
      "max": [
        0.73685485124588013,
        0.99882245063781738,
        0.41000303626060486,
        1
      ],
      "min": [
        -0.99949336051940918,
        -0.9994891881942749,
        -0.48658069968223572,
        -1
      ],
      "type": "VEC4"
    },
    {
      "bufferView": 1,
      "byteOffset": 13712,
      "componentType": 5126,
      "count": 323,
      "max": [
        0.1300400048494339,
        0.65741997957229614
      ],
      "min": [
        0.045010000467300415,
        0.46645998954772949
      ],
      "type": "VEC2"
    },
    {
      "bufferView": 0,
      "byteOffset": 34584,
      "componentType": 5125,
      "count": 1914,
      "max": [
        322
      ],
      "min": [
        0
      ],
      "type": "SCALAR"
    },
    {
      "bufferView": 2,
      "byteOffset": 48888,
      "componentType": 5126,
      "count": 82,
      "max": [
        3.1156899929046631,
        1,
        1.9688899517059326
      ],
      "min": [
        -1,
        -1.2248200178146362,
        0.082639999687671661
      ],
      "type": "VEC3"
    },
    {
      "bufferView": 2,
      "byteOffset": 49872,
      "componentType": 5126,
      "count": 82,
      "max": [
        0.70695173740386963,
        0.72788256406784058,
        0.90454137325286865
      ],
      "min": [
        -0.92749673128128052,
        -0.72788256406784058,
        -0.98683327436447144
      ],
      "type": "VEC3"
    },
    {
      "bufferView": 3,
      "byteOffset": 32592,
      "componentType": 5126,
      "count": 82,
      "max": [
        0.97579294443130493,
        0.99291443824768066,
        0.28377300500869751,
        1
      ],
      "min": [
        -0.70726156234741211,
        -0.99999845027923584,
        -0.84265488386154175,
        -1
      ],
      "type": "VEC4"
    },
    {
      "bufferView": 1,
      "byteOffset": 16296,
      "componentType": 5126,
      "count": 82,
      "max": [
        0.19216999411582947,
        0.33382999897003174
      ],
      "min": [
        0.15746000409126282,
        0.23958000540733337
      ],
      "type": "VEC2"
    },
    {
      "bufferView": 0,
      "byteOffset": 42240,
      "componentType": 5125,
      "count": 480,
      "max": [
        81
      ],
      "min": [
        0
      ],
      "type": "SCALAR"
    }
  ],
  "asset": {
    "extras": {
      "author": "Dirk.z (https://sketchfab.com/138983)",
      "license": "CC-BY-4.0 (http://creativecommons.org/licenses/by/4.0/)",
      "source": "https://sketchfab.com/3d-models/lego-figure-1d7e68b133c64d08811af3c8bb1193a1",
      "title": "Lego figure"
    },
    "generator": "Sketchfab-4.68.0",
    "version": "2.0"
  },
  "bufferViews": [
    {
      "buffer": 0,
      "byteLength": 44160,
      "byteOffset": 0,
      "name": "floatBufferViews",
      "target": 34963
    },
    {
      "buffer": 0,
      "byteLength": 16952,
      "byteOffset": 44160,
      "byteStride": 8,
      "name": "floatBufferViews",
      "target": 34962
    },
    {
      "buffer": 0,
      "byteLength": 50856,
      "byteOffset": 61112,
      "byteStride": 12,
      "name": "floatBufferViews",
      "target": 34962
    },
    {
      "buffer": 0,
      "byteLength": 33904,
      "byteOffset": 111968,
      "byteStride": 16,
      "name": "floatBufferViews",
      "target": 34962
    }
  ],
  "buffers": [
    {
      "byteLength": 145872,
      "uri": "scene.bin"
    }
  ],
  "images": [
    {
      "uri": "textures/Root_baseColor.png"
    }
  ],
  "materials": [
    {
      "doubleSided": true,
      "name": "Root",
      "pbrMetallicRoughness": {
        "baseColorFactor": [
          1,
          1,
          1,
          1
        ],
        "baseColorTexture": {
          "index": 0,
          "texCoord": 0
        },
        "metallicFactor": 0,
        "roughnessFactor": 0.1079458841
      }
    }
  ],
  "meshes": [
    {
      "name": "leg_right_0",
      "primitives": [
        {
          "attributes": {
            "NORMAL": 1,
            "POSITION": 0,
            "TANGENT": 2,
            "TEXCOORD_0": 3
          },
          "indices": 4,
          "material": 0,
          "mode": 4
        }
      ]
    },
    {
      "name": "pants_0",
      "primitives": [
        {
          "attributes": {
            "NORMAL": 6,
            "POSITION": 5,
            "TANGENT": 7,
            "TEXCOORD_0": 8
          },
          "indices": 9,
          "material": 0,
          "mode": 4
        }
      ]
    },
    {
      "name": "arm_right_0",
      "primitives": [
        {
          "attributes": {
            "NORMAL": 11,
            "POSITION": 10,
            "TANGENT": 12,
            "TEXCOORD_0": 13
          },
          "indices": 14,
          "material": 0,
          "mode": 4
        }
      ]
    },
    {
      "name": "torso_0",
      "primitives": [
        {
          "attributes": {
            "NORMAL": 16,
            "POSITION": 15,
            "TANGENT": 17,
            "TEXCOORD_0": 18
          },
          "indices": 19,
          "material": 0,
          "mode": 4
        }
      ]
    },
    {
      "name": "hand_right_0",
      "primitives": [
        {
          "attributes": {
            "NORMAL": 21,
            "POSITION": 20,
            "TANGENT": 22,
            "TEXCOORD_0": 23
          },
          "indices": 24,
          "material": 0,
          "mode": 4
        }
      ]
    },
    {
      "name": "head_0",
      "primitives": [
        {
          "attributes": {
            "NORMAL": 26,
            "POSITION": 25,
            "TANGENT": 27,
            "TEXCOORD_0": 28
          },
          "indices": 29,
          "material": 0,
          "mode": 4
        }
      ]
    },
    {
      "name": "hand_left_0",
      "primitives": [
        {
          "attributes": {
            "NORMAL": 31,
            "POSITION": 30,
            "TANGENT": 32,
            "TEXCOORD_0": 33
          },
          "indices": 34,
          "material": 0,
          "mode": 4
        }
      ]
    },
    {
      "name": "arm_left_0",
      "primitives": [
        {
          "attributes": {
            "NORMAL": 36,
            "POSITION": 35,
            "TANGENT": 37,
            "TEXCOORD_0": 38
          },
          "indices": 39,
          "material": 0,
          "mode": 4
        }
      ]
    },
    {
      "name": "leg_left_0",
      "primitives": [
        {
          "attributes": {
            "NORMAL": 41,
            "POSITION": 40,
            "TANGENT": 42,
            "TEXCOORD_0": 43
          },
          "indices": 44,
          "material": 0,
          "mode": 4
        }
      ]
    }
  ],
  "nodes": [
    {
      "children": [
        1
      ],
      "name": "RootNode (gltf orientation matrix)",
      "rotation": [
        -0.70710678118654746,
        -0,
        -0,
        0.70710678118654757
      ]
    },
    {
      "children": [
        2
      ],
      "name": "RootNode (model correction matrix)"
    },
    {
      "children": [
        3,
        5,
        7,
        9,
        11,
        13,
        15,
        17,
        19,
        21
      ],
      "name": "Root"
    },
    {
      "children": [
        4
      ],
      "matrix": [
        0,
        0,
        -0.66507000000000016,
        0,
        0,
        0.66507000000000016,
        0,
        0,
        0.66507000000000016,
        0,
        0,
        0,
        -0,
        0.63331000000000004,
        -1.74892,
        1
      ],
      "name": "leg_right"
    },
    {
      "mesh": 0,
      "name": "leg_right_0"
    },
    {
      "children": [
        6
      ],
      "matrix": [
        0,
        0,
        -0.69909000000000021,
        0,
        0,
        0.70745999999999998,
        0,
        0,
        0.70745999999999998,
        0,
        0,
        0,
        0.16460000000000002,
        0.6287100000000001,
        -1.7758400000000001,
        1
      ],
      "name": "pants"
    },
    {
      "mesh": 1,
      "name": "pants_0"
    },
    {
      "children": [
        8
      ],
      "matrix": [
        1,
        0,
        0,
        0,
        0,
        1,
        0,
        0,
        0,
        0,
        1,
        0,
        1.1282800000000002,
        0.67708000000000013,
        1.0806100000000001,
        1
      ],
      "name": "arm_right"
    },
    {
      "mesh": 2,
      "name": "arm_right_0"
    },
    {
      "children": [
        10
      ],
      "matrix": [
        1.4688099999999999,
        0,
        0,
        0,
        0,
        -0,
        0.60281000000000007,
        0,
        0,
        -0.60281000000000007,
        -0,
        0,
        0,
        0,
        -0.20296000000000003,
        1
      ],
      "name": "torso"
    },
    {
      "mesh": 3,
      "name": "torso_0"
    },
    {
      "children": [
        12
      ],
      "matrix": [
        1,
        0,
        0,
        0,
        0,
        1,
        0,
        0,
        0,
        0,
        1,
        0,
        1.85328,
        0.37462000000000006,
        -0.47203000000000001,
        1
      ],
      "name": "hand_right"
    },
    {
      "mesh": 4,
      "name": "hand_right_0"
    },
    {
      "children": [
        14
      ],
      "matrix": [
        0.65474000000000021,
        0,
        0,
        0,
        0,
        0.65474000000000021,
        0,
        0,
        0,
        0,
        0.65943000000000007,
        0,
        0,
        0.62766000000000011,
        1.64059,
        1
      ],
      "name": "head"
    },
    {
      "mesh": 5,
      "name": "head_0"
    },
    {
      "children": [
        16
      ],
      "matrix": [
        -1,
        0,
        0,
        0,
        0,
        1,
        0,
        0,
        0,
        0,
        1,
        0,
        -1.7893600000000001,
        0.37462000000000006,
        -0.47203000000000001,
        1
      ],
      "name": "hand_left"
    },
    {
      "mesh": 6,
      "name": "hand_left_0"
    },
    {
      "children": [
        18
      ],
      "matrix": [
        -1,
        0,
        0,
        0,
        0,
        1,
        0,
        0,
        0,
        0,
        1,
        0,
        -1.0643500000000001,
        0.67708000000000013,
        1.0806100000000001,
        1
      ],
      "name": "arm_left"
    },
    {
      "mesh": 7,
      "name": "arm_left_0"
    },
    {
      "children": [
        20
      ],
      "matrix": [
        0,
        0,
        -0.66507000000000016,
        0,
        0,
        0.66507000000000016,
        0,
        0,
        -0.66507000000000016,
        0,
        -0,
        0,
        -0,
        0.63331000000000004,
        -1.74892,
        1
      ],
      "name": "leg_left"
    },
    {
      "mesh": 8,
      "name": "leg_left_0"
    },
    {
      "children": [
        22
      ],
      "matrix": [
        0.61433000000000004,
        0.28528999999999999,
        0.76458000000000004,
        0,
        -0.76423000000000008,
        0.53677000000000008,
        0.41377000000000003,
        0,
        -0.28622000000000003,
        -0.82089000000000012,
        0.53627000000000002,
        0,
        -5.7254699999999996,
        -9.6408799999999992,
        7.5293299999999999,
        1
      ],
      "name": "Sun"
    },
    {
      "name": "Sun"
    }
  ],
  "samplers": [
    {
      "magFilter": 9729,
      "minFilter": 9987,
      "wrapS": 10497,
      "wrapT": 10497
    }
  ],
  "scene": 0,
  "scenes": [
    {
      "name": "OSG_Scene",
      "nodes": [
        0
      ]
    }
  ],
  "textures": [
    {
      "sampler": 0,
      "source": 0
    }
  ]
}

